# xmcd
# 
# Track frame offsets:
#     150
#     14543
#     24640
#     35623
#     49408
#     60098
#     73505
#     86180
#     96375
#     109458
#     119663
#     127390
#     138053
#     151013
#     163180
#     173670
#     188853
#     202078
# 
# Disc length: 2883
# 
# Revision: 1
# Processed by: cddbd v1.5.2PL0 Copyright (c) Steve Scherf et al.
# Submitted via: BonkEnc v1.0.8
# 
DISCID=090b4112
DTITLE=Various Artist - Selection Of Country CD 2
DYEAR=1996
DGENRE=Country
TTITLE0=Lynn Anderson - Cry
TTITLE1=Rick Nelson - Welcome To My World
TTITLE2=Dolly Parton - Honky Tonk Angels
TTITLE3=Willie Nelson - A Moment Isn't Very Long
TTITLE4=Kenny Rogers - Ticket To Nowhere
TTITLE5=Ray Charles - Crying Time
TTITLE6=Nancy Sinatra and Lee Hazlewood - Jackson
TTITLE7=Patsy Cline - Seven Lonely Days
TTITLE8=Johnny Ray - Just Walking In The Rain
TTITLE9=Faron Young - Hello Walls
TTITLE10=Roger Miller - Do Waka Do
TTITLE11=Jimmy Rodgers - Kisses Sweeter Than Wine
TTITLE12=Johnny Cash - Folsom City Blues
TTITLE13=George Jones - Crazy Arms
TTITLE14=Johnny Paycheck - A-11
TTITLE15=The Kingston Trio - Tom Dooley
TTITLE16=Don Williams - Ruby Tuesday
TTITLE17=Frankie Lane - Riders In The Sky
EXTD=
EXTT0=
EXTT1=
EXTT2=
EXTT3=
EXTT4=
EXTT5=
EXTT6=
EXTT7=
EXTT8=
EXTT9=
EXTT10=
EXTT11=
EXTT12=
EXTT13=
EXTT14=
EXTT15=
EXTT16=
EXTT17=
PLAYORDER=
